<?xml version="1.0" encoding="UTF-8" standalone="no"?><!DOCTYPE svg PUBLIC "-//W3C//DTD SVG 1.1//EN" "http://www.w3.org/Graphics/SVG/1.1/DTD/svg11.dtd"><svg width="100%" height="100%" viewBox="0 0 1113 1130" version="1.1" xmlns="http://www.w3.org/2000/svg" xmlns:xlink="http://www.w3.org/1999/xlink" xml:space="preserve" xmlns:serif="http://www.serif.com/" style="fill-rule:evenodd;clip-rule:evenodd;stroke-linejoin:round;stroke-miterlimit:2;"><g><path d="M1102.02,581.908c-0,155.114 -64.631,295.08 -168.438,394.56c-97.772,93.615 -230.279,151.298 -376.281,151.697l-2.677,-0c-156.708,-0.342 -297.927,-66.681 -397.293,-172.709c-91.679,-97.715 -147.768,-229.083 -147.768,-373.548c0,-301.628 244.572,-546.2 546.257,-546.2c301.685,0 546.2,244.572 546.2,546.2Z" style="fill:#ffb240;fill-rule:nonzero;"/><g><g><path d="M933.577,976.468c-97.772,93.615 -230.279,151.298 -376.281,151.697l-2.677,-0c-156.708,-0.342 -297.927,-66.681 -397.293,-172.709c28.927,-77.728 81.372,-124.136 132.45,-153.804c5.808,-3.416 11.844,-6.605 17.994,-9.566c7.517,-3.645 15.204,-7.004 22.891,-10.079c12.585,-5.068 25.283,-9.453 37.469,-13.325c20.329,-6.435 39.405,-11.503 54.552,-15.944c20.499,-5.922 33.881,-10.819 33.881,-16.571l-0,-192.582l170.773,0l-0,192.582c-0,7.232 20.727,13.097 50.167,21.411c16.229,4.612 35.077,9.965 54.551,16.741c9.966,3.417 20.158,7.289 30.18,11.617c8.371,3.587 16.685,7.516 24.771,11.844c4.384,2.335 8.712,4.783 12.983,7.346c53.583,32.514 107.679,83.991 133.589,171.342Z" style="fill:#ffd7b5;fill-rule:nonzero;"/></g><path d="M933.577,976.468c-15.204,14.577 -31.262,28.244 -48.06,40.999c-13.781,10.478 -28.13,20.272 -42.879,29.383c-29.838,18.449 -61.555,34.109 -94.81,46.579c-59.278,22.322 -123.51,34.508 -190.532,34.736l-2.677,-0c-67.193,-0.171 -131.482,-12.414 -190.874,-34.736c-33.254,-12.527 -64.972,-28.13 -94.753,-46.579c-14.748,-9.111 -28.984,-18.905 -42.765,-29.383c-18.962,-14.293 -36.899,-29.895 -53.811,-46.579c-5.125,-5.011 -10.136,-10.193 -15.09,-15.432c1.765,-4.783 3.644,-9.396 5.581,-13.951c7.345,-17.083 15.83,-32.572 25.225,-46.58c7.061,-10.591 14.635,-20.385 22.607,-29.383c16.229,-18.449 33.938,-33.71 52.046,-46.579c8.94,-6.378 17.994,-12.072 26.991,-17.311c5.808,-3.416 11.844,-6.605 17.994,-9.566c1.822,-0.854 3.645,-1.709 5.467,-2.506c5.751,-2.733 11.559,-5.239 17.424,-7.573c3.075,-1.253 6.15,-2.449 9.225,-3.588c9.51,-3.587 19.019,-6.833 28.244,-9.737c2.961,-0.968 5.922,-1.879 8.826,-2.733c16.969,-5.182 32.8,-9.396 45.726,-13.211l79.549,36.842l52.331,24.258l53.014,-24.258l69.927,-32.002c12.584,3.587 26.763,7.63 41.568,12.414c4.271,1.366 8.599,2.79 12.983,4.327c7.346,2.506 14.863,5.296 22.322,8.314c2.62,1.082 5.239,2.164 7.858,3.303c2.734,1.196 5.467,2.391 8.2,3.644c5.581,2.563 11.161,5.296 16.571,8.2c4.384,2.335 8.712,4.783 12.983,7.346c7.061,4.27 14.122,8.883 21.069,13.837c18.108,12.812 35.817,28.13 52.046,46.579c7.972,8.998 15.545,18.792 22.606,29.383c9.396,14.008 17.938,29.497 25.226,46.58c4.043,9.282 7.688,19.076 10.933,29.383c0.57,1.822 1.139,3.701 1.709,5.58Z" style="fill:#451378;fill-rule:nonzero;"/><path d="M842.638,1046.85c-29.838,18.449 -61.555,34.109 -94.81,46.579l-384.083,0c-33.254,-12.527 -64.972,-28.13 -94.753,-46.579l573.646,-0Z" style="fill:#6a9dc4;fill-rule:nonzero;"/><path d="M933.577,976.468c-15.204,14.577 -31.262,28.244 -48.06,40.999l-659.29,0c-18.962,-14.293 -36.899,-29.895 -53.811,-46.579l759.452,-0c0.57,1.822 1.139,3.701 1.709,5.58Z" style="fill:#6a9dc4;fill-rule:nonzero;"/><path d="M920.935,941.505l-758.028,-0c7.345,-17.083 15.83,-32.572 25.225,-46.58l707.577,0c9.396,14.008 17.938,29.497 25.226,46.58Z" style="fill:#6a9dc4;fill-rule:nonzero;"/><path d="M873.109,865.542l-662.37,0c16.229,-18.449 33.938,-33.71 52.046,-46.579l558.272,-0c18.108,12.812 35.817,28.13 52.052,46.579Z" style="fill:#6a9dc4;fill-rule:nonzero;"/><path d="M422.682,752.738l79.549,36.842l-188.994,0c5.751,-2.733 11.559,-5.239 17.424,-7.573c12.585,-5.068 25.283,-9.453 37.469,-13.325c2.961,-0.968 5.922,-1.879 8.826,-2.733c16.969,-5.182 32.8,-9.396 45.726,-13.211Z" style="fill:#6a9dc4;fill-rule:nonzero;"/><path d="M770.434,789.58l-162.858,0l69.927,-32.002c12.584,3.587 26.763,7.63 41.568,12.414c4.271,1.366 8.599,2.79 12.983,4.327c9.966,3.417 20.158,7.289 30.18,11.617c2.734,1.196 5.467,2.391 8.2,3.644Z" style="fill:#6a9dc4;fill-rule:nonzero;"/><path d="M754.376,782.633l-127.04,143.44l-71.521,-60.531l-62.524,60.531l-153.405,-147.654c9.51,-3.587 19.019,-6.833 28.244,-9.737c2.961,-0.968 5.922,-1.879 8.826,-2.733c16.969,-5.182 32.8,-9.396 45.726,-13.211l79.549,36.842l52.331,24.258l53.014,-24.258l69.927,-32.002c12.584,3.587 26.763,7.63 41.568,12.414c4.271,1.366 8.599,2.79 12.983,4.327c7.346,2.506 14.863,5.296 22.322,8.314Z" style="fill:#46134b;fill-opacity:0.3;fill-rule:nonzero;"/><path d="M627.336,577.296l-0,108.761c-19.361,15.09 -45.441,28.643 -77.956,30.75c-47.376,3.018 -76.93,-16.912 -92.817,-33.084l-0,-96.918l166.844,-15.602l3.929,6.093Z" style="fill:#ffc6a6;fill-rule:nonzero;"/><path d="M332.336,243.973c-0,-0 -41.096,215.171 18.301,318.392c29.696,51.614 113.403,106.615 191.255,108.067c77.853,1.458 149.847,-50.634 187.133,-95.921c74.573,-90.574 18.478,-330.538 18.478,-330.538c0,-0 -166.792,-118.727 -415.167,-0Z" style="fill:#ffd7b5;fill-rule:nonzero;"/><g><path d="M747.902,386.775c-0,-0 46.141,-65.354 79.726,-7.989c23.871,40.765 -20.796,128.936 -77.545,90.967l-2.181,-82.978Z" style="fill:#ffd7b5;fill-rule:nonzero;"/></g><path d="M781.43,387.453l-13.689,66.754c-0,0 19.879,7.67 27.281,-7.135c7.403,-14.805 -2.551,-25.248 -2.551,-25.248c0,-0 26.245,-2.882 25.135,-23.985c-1.116,-21.097 -32.241,-29.565 -36.176,-10.386Z" style="fill:#ffac7e;fill-rule:nonzero;"/><g><path d="M336.919,387.339c0,-0 -46.141,-65.354 -79.726,-7.989c-23.87,40.765 20.796,128.936 77.546,90.966l2.18,-82.977Z" style="fill:#ffd7b5;fill-rule:nonzero;"/></g><path d="M304.803,387.453l13.69,66.754c-0,0 -19.879,7.67 -27.282,-7.135c-7.403,-14.805 2.551,-25.248 2.551,-25.248c0,-0 -26.245,-2.882 -25.135,-23.985c1.122,-21.097 32.242,-29.565 36.176,-10.386Z" style="fill:#ffac7e;fill-rule:nonzero;"/><path d="M318.476,227.835c-0,-0 -3.075,317.47 1.6,384.629c4.675,67.159 196.226,120.577 220.911,120.577c24.685,0 225.199,-50.366 225.199,-131.26l0,-373.946l-44.603,-0l-0,228.359l-83.707,39.155c-0,-0 -13.592,-44.849 -101.262,-44.849c-87.67,0 -97.339,43.676 -97.339,43.676l-77.118,-37.982l-0,-234.463l-43.681,6.104Z" style="fill:#46134b;fill-rule:nonzero;"/><g><g><path d="M472.775,377.379c-0,12.42 -10,22.487 -22.328,22.487c-12.328,0 -22.327,-10.067 -22.327,-22.487c-0,-12.419 9.993,-22.487 22.327,-22.487c12.334,-0.005 22.328,10.068 22.328,22.487Z" style="fill:#46134b;fill-rule:nonzero;"/><path d="M655.79,377.379c0,12.42 -9.993,22.487 -22.327,22.487c-12.328,0 -22.328,-10.067 -22.328,-22.487c0,-12.419 9.994,-22.487 22.328,-22.487c12.328,-0.005 22.327,10.068 22.327,22.487Z" style="fill:#46134b;fill-rule:nonzero;"/></g></g><path d="M433.677,448.342c-9.446,14.469 -30.316,17.578 -46.613,6.941c-16.297,-10.637 -21.844,-30.994 -12.397,-45.463c9.447,-14.469 30.317,-17.579 46.614,-6.942c16.297,10.637 21.849,30.995 12.396,45.464Z" style="fill:#ff918b;fill-rule:nonzero;"/><path d="M650.46,448.342c9.447,14.469 30.317,17.578 46.614,6.941c16.297,-10.637 21.849,-30.994 12.397,-45.463c-9.447,-14.469 -30.317,-17.579 -46.614,-6.942c-16.297,10.637 -21.843,30.995 -12.397,45.464Z" style="fill:#ff918b;fill-rule:nonzero;"/><path d="M401.892,352.279c-2.625,-0 -5.256,-0.894 -7.392,-2.728c-4.743,-4.071 -5.346,-11.161 -1.321,-15.938c1.253,-1.487 31.41,-36.29 90.944,-22.419c6.128,1.424 9.937,7.551 8.508,13.672c-1.429,6.127 -7.568,9.943 -13.672,8.508c-45.435,-10.592 -67.512,13.945 -68.429,14.993c-2.261,2.579 -5.444,3.912 -8.638,3.912Z" style="fill:#46134b;fill-rule:nonzero;"/><path d="M645.78,342.012c-16.263,-0 -34.821,-4.846 -52.536,-19.349c-4.863,-3.987 -5.581,-11.161 -1.595,-16.024c3.992,-4.863 11.167,-5.575 16.03,-1.595c33.13,27.122 65.935,7.215 66.265,7.01c5.341,-3.331 12.362,-1.703 15.688,3.633c3.331,5.341 1.702,12.362 -3.633,15.688c-8.303,5.176 -22.971,10.637 -40.219,10.637Z" style="fill:#46134b;fill-rule:nonzero;"/><path d="M504.088,485.036l69.812,-9.925c0,0 -2.568,29.138 -30.897,33.164c-28.329,4.026 -38.915,-23.239 -38.915,-23.239Z" style="fill:#fff;fill-rule:nonzero;"/></g><path d="M385.948,502.575c-10.683,-4.578 -36.632,103.79 -21.371,117.525c15.266,13.735 32.053,-112.947 21.371,-117.525Z" style="fill:#5e3162;fill-rule:nonzero;"/><path d="M433.416,529.492c-11.093,-3.474 -25.944,106.962 -9.368,119.085c16.577,12.118 20.46,-115.612 9.368,-119.085Z" style="fill:#5e3162;fill-rule:nonzero;"/><path d="M495.842,561.067c-11.223,-3.012 -21.507,107.942 -4.447,119.37c17.06,11.423 15.677,-116.358 4.447,-119.37Z" style="fill:#5e3162;fill-rule:nonzero;"/><path d="M696.67,508.269c10.682,-4.578 36.632,103.791 21.371,117.525c-15.267,13.735 -32.054,-112.947 -21.371,-117.525Z" style="fill:#5e3162;fill-rule:nonzero;"/><path d="M649.202,535.186c11.093,-3.473 25.943,106.962 9.367,119.086c-16.576,12.117 -20.46,-115.612 -9.367,-119.086Z" style="fill:#5e3162;fill-rule:nonzero;"/><path d="M586.775,566.761c11.224,-3.012 21.508,107.942 4.447,119.37c-17.06,11.429 -15.676,-116.358 -4.447,-119.37Z" style="fill:#5e3162;fill-rule:nonzero;"/><path d="M535.538,455.784c-7.244,0 -14.196,-1.184 -18.296,-4.862c-2.158,-1.931 -4.544,-5.478 -3.667,-11.401c6.85,-46.306 19.508,-114.33 19.634,-115.014c0.284,-1.543 1.742,-2.551 3.319,-2.277c1.544,0.29 2.563,1.776 2.278,3.32c-0.125,0.677 -12.767,68.599 -19.6,114.803c-0.546,3.707 0.786,5.387 1.834,6.326c7.26,6.503 31.142,2.101 39.735,-0.148c1.52,-0.393 3.075,0.518 3.473,2.033c0.399,1.52 -0.512,3.075 -2.033,3.474c-2.146,0.569 -14.799,3.746 -26.677,3.746Z" style="fill:#ffb38d;fill-rule:nonzero;"/><path d="M328.822,232.692c0,0 42.873,-145.262 214.289,-145.262c177.02,-0 208.395,156.389 208.395,156.389l-422.684,-11.127Z" style="fill:#ad3320;fill-rule:nonzero;"/><path d="M317.843,313.848c0,-0 88.177,-39.063 225.268,-39.063c137.091,-0 223.075,39.063 223.075,39.063c0,-0 8.695,-49.165 8.695,-73.15c0,-23.984 -95.846,-66.908 -238.546,-66.908c-142.7,0 -229.806,41.66 -234.857,55.543c-5.04,13.894 16.365,84.515 16.365,84.515Z" style="fill:#d43e20;fill-rule:nonzero;"/><path d="M355.768,280.906c16.001,-3.639 4.362,-57.496 -9.453,-53.475c-13.82,4.014 -6.548,57.108 9.453,53.475Z" style="fill:#ad3320;fill-rule:nonzero;"/><path d="M408.685,265.025c16.001,-3.639 4.362,-57.496 -9.453,-53.482c-13.82,4.026 -6.548,57.12 9.453,53.482Z" style="fill:#ad3320;fill-rule:nonzero;"/><path d="M464.376,254.946c16.086,-3.24 5.779,-57.371 -8.138,-53.692c-13.911,3.678 -7.943,56.937 8.138,53.692Z" style="fill:#ad3320;fill-rule:nonzero;"/><path d="M518.597,245.254c16.24,-2.335 8.986,-56.961 -5.114,-54.068c-14.099,2.893 -11.132,56.403 5.114,54.068Z" style="fill:#ad3320;fill-rule:nonzero;"/><path d="M726.651,280.906c-16.002,-3.639 -4.362,-57.496 9.458,-53.475c13.82,4.014 6.543,57.108 -9.458,53.475Z" style="fill:#ad3320;fill-rule:nonzero;"/><path d="M673.733,265.025c-16.001,-3.639 -4.362,-57.496 9.453,-53.482c13.826,4.026 6.548,57.12 -9.453,53.482Z" style="fill:#ad3320;fill-rule:nonzero;"/><path d="M618.043,254.946c-16.087,-3.24 -5.78,-57.371 8.137,-53.692c13.911,3.678 7.949,56.937 -8.137,53.692Z" style="fill:#ad3320;fill-rule:nonzero;"/><path d="M563.827,245.254c-16.24,-2.335 -8.986,-56.961 5.113,-54.068c14.1,2.893 11.127,56.403 -5.113,54.068Z" style="fill:#ad3320;fill-rule:nonzero;"/><path d="M719.071,769.992l-97.145,110.413l-67.364,-44.53l-61.271,44.53l-116.335,-114.456c16.969,-5.182 32.8,-9.396 45.726,-13.211l131.88,61.1l122.941,-56.26c12.584,3.587 26.763,7.63 41.568,12.414Z" style="fill:#fff;fill-rule:nonzero;"/></g></svg>