<?xml version="1.0" encoding="UTF-8" standalone="no"?><!DOCTYPE svg PUBLIC "-//W3C//DTD SVG 1.1//EN" "http://www.w3.org/Graphics/SVG/1.1/DTD/svg11.dtd"><svg width="100%" height="100%" viewBox="0 0 1113 1130" version="1.1" xmlns="http://www.w3.org/2000/svg" xmlns:xlink="http://www.w3.org/1999/xlink" xml:space="preserve" xmlns:serif="http://www.serif.com/" style="fill-rule:evenodd;clip-rule:evenodd;stroke-linejoin:round;stroke-miterlimit:2;"><g><path d="M1096.59,583.638c0,148.736 -60.047,283.433 -157.193,381.199c-97.935,98.612 -233.591,159.618 -383.51,159.674l-1.297,0c-150.428,-0.338 -286.365,-62.02 -384.187,-161.422c-96.188,-97.653 -155.502,-231.617 -155.502,-379.451c-0,-298.655 242.161,-540.816 540.873,-540.816c298.712,-0 540.816,242.161 540.816,540.816Z" style="fill:#6a9dc4;fill-rule:nonzero;"/><path d="M721.893,545.693c89.997,0 105.682,-290.604 50.642,-339.138c9.991,-148.38 -101.268,-210.13 -162.995,-136.32c-82.396,-124.018 -159.516,-64.434 -139.478,23.799c-99.959,-43.014 -136.281,26.138 -111.907,75.371c-63.745,21.109 -39.371,121.391 -23.443,150.884c-50.761,270.764 90.938,244.241 90.938,244.241l319.016,-53.952l-22.773,35.115Z" style="fill:#46134b;fill-rule:nonzero;"/><g><g><path d="M939.392,964.837c-97.935,98.612 -233.591,159.618 -383.51,159.674l-1.297,0c-150.428,-0.338 -286.365,-62.02 -384.187,-161.422c27.796,-82.768 81.866,-131.313 134.527,-161.872c5.751,-3.383 11.728,-6.541 17.817,-9.473c7.442,-3.608 15.054,-6.935 22.665,-9.979c12.461,-5.018 25.034,-9.36 37.1,-13.194c47.304,-14.997 87.561,-22.271 87.561,-32.194l0,-190.684l169.09,0l-0,190.684c-0,11.107 49.39,18.888 103.686,37.776c9.867,3.383 19.96,7.217 29.883,11.502c8.288,3.552 16.52,7.443 24.526,11.728c4.341,2.311 8.627,4.736 12.855,7.273c51.139,31.01 102.672,79.442 129.284,160.181Z" style="fill:#ffd7b5;fill-rule:nonzero;"/></g><path d="M639.158,579.071l-0,107.69c-19.17,14.941 -44.993,44.435 -77.187,46.521c-46.91,2.988 -76.172,-32.82 -91.903,-48.833l0,-95.962l165.199,-15.449l3.891,6.033Z" style="fill:#ffc6a6;fill-rule:nonzero;"/><path d="M357.642,224.671c0,-0 -27.351,219.704 28.479,327.805c27.915,54.053 95.319,133.546 168.492,135.074c73.178,1.523 129.566,-74.92 164.613,-122.349c70.094,-94.857 28.648,-340.53 28.648,-340.53c-0,-0 -156.771,-124.345 -390.232,-0Z" style="fill:#ffd7b5;fill-rule:nonzero;"/><g><path d="M351.598,390.986c0,0 -45.686,-64.709 -78.94,-7.91c-23.636,40.364 20.59,127.666 76.781,90.07l2.159,-82.16Z" style="fill:#ffd7b5;fill-rule:nonzero;"/></g><g><path d="M758.536,390.428c-0,0 45.686,-64.709 78.94,-7.91c23.635,40.364 -20.591,127.666 -76.781,90.07l-2.159,-82.16Z" style="fill:#ffd7b5;fill-rule:nonzero;"/></g><g><g><path d="M486.114,381.125c0,12.297 -9.895,22.266 -22.107,22.266c-12.212,-0 -22.107,-9.969 -22.107,-22.266c-0,-12.297 9.895,-22.265 22.107,-22.265c12.212,-0 22.107,9.968 22.107,22.265Z" style="fill:#46134b;fill-rule:nonzero;"/><path d="M667.326,381.125c0,12.297 -9.895,22.266 -22.107,22.266c-12.212,-0 -22.108,-9.969 -22.108,-22.266c0,-12.297 9.896,-22.265 22.108,-22.265c12.212,-0 22.107,9.968 22.107,22.265Z" style="fill:#46134b;fill-rule:nonzero;"/></g></g><path d="M436.132,440.112c-9.354,14.327 -30.018,17.405 -46.155,6.873c-16.136,-10.532 -21.633,-30.689 -12.274,-45.015c9.354,-14.327 30.018,-17.405 46.154,-6.873c16.131,10.532 21.628,30.683 12.275,45.015Z" style="fill:#ff918b;fill-rule:nonzero;"/><path d="M673.325,440.112c9.354,14.327 30.018,17.405 46.155,6.873c16.136,-10.532 21.633,-30.689 12.274,-45.015c-9.354,-14.327 -30.018,-17.405 -46.154,-6.873c-16.131,10.532 -21.628,30.683 -12.275,45.015Z" style="fill:#ff918b;fill-rule:nonzero;"/><path d="M547.966,450.633c-8.441,0 -16.684,-2.937 -21.183,-11.942c-10.222,-20.438 11.203,-101.617 12.122,-105.062c0.4,-1.505 1.962,-2.374 3.45,-2.002c1.506,0.401 2.402,1.946 2.002,3.451c-6.095,22.902 -20.224,85.701 -12.528,101.093c8.485,16.965 34.996,4.234 35.261,4.11c1.393,-0.682 3.084,-0.112 3.772,1.291c0.688,1.399 0.113,3.085 -1.285,3.772c-5.357,2.622 -13.571,5.289 -21.611,5.289Z" style="fill:#ffb38d;fill-rule:nonzero;"/><path d="M415.919,356.328c-2.571,0 -5.148,-0.874 -7.262,-2.655c-4.765,-4.015 -5.368,-11.13 -1.353,-15.889c1.24,-1.477 31.117,-35.943 90.047,-22.197c6.067,1.409 9.839,7.476 8.424,13.537c-1.41,6.067 -7.488,9.844 -13.538,8.424c-45.663,-10.645 -67.478,14.512 -67.692,14.772c-2.227,2.644 -5.418,4.008 -8.626,4.008Z" style="fill:#46134b;fill-rule:nonzero;"/><path d="M691.418,356.328c-3.18,0 -6.343,-1.336 -8.57,-3.941c-1.032,-1.172 -22.896,-25.281 -67.748,-14.839c-6.05,1.415 -12.128,-2.357 -13.538,-8.424c-1.409,-6.067 2.357,-12.128 8.424,-13.537c58.919,-13.735 88.801,20.726 90.048,22.197c4.014,4.759 3.411,11.874 -1.354,15.889c-2.114,1.781 -4.696,2.655 -7.262,2.655Z" style="fill:#46134b;fill-rule:nonzero;"/><path d="M612.545,472.96c0,0 -11.107,47.587 -58.862,47.587c-47.812,-0 -58.863,-47.587 -58.863,-47.587l117.725,0Z" style="fill:#ad3320;fill-rule:nonzero;"/><path d="M319.804,391.099l13.555,66.097c-0,-0 -19.683,7.595 -27.013,-7.065c-7.33,-14.659 2.526,-25 2.526,-25c-0,0 -25.987,-2.853 -24.887,-23.748c1.105,-20.889 31.923,-29.273 35.819,-10.284Z" style="fill:#ffac7e;fill-rule:nonzero;"/><path d="M791.733,391.099l-13.554,66.097c0,-0 19.683,7.595 27.013,-7.065c7.329,-14.659 -2.526,-25 -2.526,-25c-0,0 25.986,-2.853 24.887,-23.748c-1.111,-20.889 -31.929,-29.273 -35.82,-10.284Z" style="fill:#ffac7e;fill-rule:nonzero;"/></g><path d="M338.861,284.701c0,-0 -22.304,136.337 20.112,194.382c2.233,-35.949 8.328,-170.008 8.328,-170.008c-0,-0 44.705,-40.624 39.619,-90.386c122.879,67.027 303.651,109.685 284.498,-4.06c28.298,50.778 47.592,83.276 47.592,83.276l16.052,174.694c22.339,-15.132 40.562,-81.494 18.742,-156.415c-19.322,-66.339 -1.28,-107.65 -1.28,-107.65l-69.976,-91.401l-260.637,31.484l-69.53,31.484l-33.204,43.668l-0.316,60.932Z" style="fill:#46134b;fill-rule:nonzero;"/><path d="M939.392,964.837c-97.935,98.612 -233.591,159.618 -383.51,159.674l-1.297,0c-150.428,-0.338 -286.365,-62.02 -384.187,-161.422c21.256,-63.373 57.96,-106.674 97.653,-137.177c12.122,-9.36 24.526,-17.535 36.874,-24.695c5.751,-3.383 11.728,-6.541 17.817,-9.473c7.442,-3.608 15.054,-6.935 22.665,-9.979c12.461,-5.018 25.034,-9.36 37.1,-13.194c22.44,-7.104 43.358,-12.516 59.088,-17.253c17.366,-5.243 28.473,-9.754 28.473,-14.941l0,-14.321c22.215,17.084 62.189,47.869 66.193,51.364c5.638,4.849 17.422,42.569 17.422,42.569c-0,-0 7.329,-36.198 16.52,-44.429c6.145,-5.526 44.372,-30.954 68.955,-47.079l-0,11.896c-0,4.511 8.175,8.458 21.594,12.912c19.452,6.371 49.898,13.644 82.092,24.864c9.867,3.383 19.96,7.217 29.883,11.502c8.288,3.552 16.52,7.443 24.526,11.728c4.341,2.311 8.627,4.736 12.855,7.273c2.988,1.804 6.033,3.721 9.021,5.694c48.094,31.123 95.23,78.484 120.263,154.487Z" style="fill:#d43e20;fill-rule:nonzero;"/><path d="M660.752,749.289l-106.167,115.188l-112.99,-113.159c17.366,-5.243 28.473,-9.754 28.473,-14.941l0,-14.321c22.215,17.084 62.189,47.869 66.193,51.364c5.638,4.849 17.422,42.569 17.422,42.569c-0,-0 7.329,-36.198 16.52,-44.429c6.145,-5.526 44.372,-30.954 68.955,-47.079l-0,11.896c-0,4.511 8.175,8.458 21.594,12.912Z" style="fill:#ad3320;fill-rule:nonzero;"/><path d="M939.392,964.837c-97.935,98.612 -233.591,159.618 -383.51,159.674l-1.297,0c-150.428,-0.338 -286.365,-62.02 -384.187,-161.422c21.256,-63.373 57.96,-106.674 97.653,-137.177c29.995,80.232 117.162,264.206 287.436,264.206c171.458,0 241.597,-196.209 263.642,-279.768c48.094,31.123 95.23,78.484 120.263,154.487Z" style="fill:#ad3320;fill-rule:nonzero;"/><path d="M600.762,472.96c-3.158,7.274 -12.855,17.028 -41.667,18.832c-34.957,2.199 -49.559,-11.615 -54.69,-18.832l96.357,0Z" style="fill:#fff;fill-rule:nonzero;"/><path d="M521.658,531.524l31.534,10.578l32.516,-10.578c-0,0 -1.263,29.917 -32.516,52.142c-28.687,-21.368 -31.534,-52.142 -31.534,-52.142Z" style="fill:#46134b;fill-rule:nonzero;"/></g></svg>