<?xml version="1.0" encoding="UTF-8" standalone="no"?><!DOCTYPE svg PUBLIC "-//W3C//DTD SVG 1.1//EN" "http://www.w3.org/Graphics/SVG/1.1/DTD/svg11.dtd"><svg width="100%" height="100%" viewBox="0 0 1113 1130" version="1.1" xmlns="http://www.w3.org/2000/svg" xmlns:xlink="http://www.w3.org/1999/xlink" xml:space="preserve" xmlns:serif="http://www.serif.com/" style="fill-rule:evenodd;clip-rule:evenodd;stroke-linejoin:round;stroke-miterlimit:2;"><g><path d="M1107.39,572.651c-0,151.077 -60.592,287.984 -158.91,387.742c-95.898,97.396 -227.738,159.371 -373.976,164.439c-6.508,0.23 -13.017,0.346 -19.583,0.346c-6.796,-0 -13.593,-0.116 -20.332,-0.403c-145.201,-5.242 -276.176,-66.525 -371.845,-162.942c-99.124,-99.873 -160.349,-237.356 -160.349,-389.182c-0,-305.148 247.378,-552.526 552.526,-552.526c305.148,0 552.469,247.378 552.469,552.526Z" style="fill:#6a9dc4;fill-rule:nonzero;"/><path d="M801.961,405.454c38.031,-143.422 21.702,-215.015 -45.064,-248.202c-29.156,-75.228 -79.253,-51.843 -79.253,-51.843c-35.641,-95.035 -99.349,-78.13 -127.122,-65.096c-27.773,-13.034 -91.487,-29.939 -127.122,65.096c-0,-0 -50.104,-23.385 -79.259,51.843c-66.772,33.187 -83.095,104.78 -45.064,248.202c38.031,143.416 -169.317,116.869 -144.188,240.772l110.816,-0l17.562,-56.29l8.478,56.29l18.322,-0l12.705,-56.29l8.991,56.29l57.298,-0l-3.278,-22.129l12.205,22.129l319.138,-0l26.979,-86.309l-0,86.309l68.834,-0l4.285,-49.655l24.196,49.655l104.729,-0c25.135,-123.903 -182.219,-97.356 -144.188,-240.772Z" style="fill:#d43e20;fill-rule:nonzero;"/><g><g><path d="M948.481,960.393c-95.898,97.396 -227.738,159.371 -373.976,164.439l-18.661,0c-7.085,0 -14.169,0 -21.254,-0.057c-145.201,-5.242 -276.176,-66.525 -371.845,-162.942c28.223,-85.704 83.919,-135.813 138.06,-167.261c5.875,-3.456 11.98,-6.681 18.201,-9.676c7.602,-3.687 15.378,-7.085 23.154,-10.195c6.854,-2.765 13.708,-5.299 20.562,-7.718c5.817,-2.016 11.634,-3.974 17.336,-5.76c48.324,-15.32 89.448,-22.75 89.448,-32.887l0,-194.793l172.733,0l-0,194.793c-0,11.346 50.455,19.294 105.921,38.589c4.665,1.613 9.388,3.283 14.111,5.127c5.471,2.073 10.943,4.262 16.415,6.623c8.467,3.629 16.876,7.603 25.054,11.98c4.435,2.362 8.813,4.838 13.133,7.43c51.952,31.506 104.307,80.636 131.608,162.308Z" style="fill:#ffd7b5;fill-rule:nonzero;"/></g><path d="M642.233,567.64l0,110.01c-19.583,15.264 -45.962,28.972 -78.85,31.103c-47.92,3.052 -77.813,-17.107 -93.883,-33.464l0,-98.03l168.759,-15.781l3.974,6.162Z" style="fill:#ffc6a6;fill-rule:nonzero;"/><path d="M362.67,205.604c-0,0 -37.899,207.159 16.876,317.589c27.387,55.212 104.578,137.098 176.367,138.653c71.789,1.561 138.18,-77.209 172.56,-125.659c68.771,-96.901 17.043,-330.583 17.043,-330.583c-0,0 -153.801,-127.024 -382.846,0Z" style="fill:#ffd7b5;fill-rule:nonzero;"/><g><path d="M348.478,375.503c-0,0 -46.671,-66.104 -80.641,-8.081c-24.145,41.234 21.034,130.417 78.435,92.011l2.206,-83.93Z" style="fill:#ffd7b5;fill-rule:nonzero;"/></g><g><path d="M764.183,374.933c-0,-0 46.671,-66.104 80.641,-8.081c24.145,41.234 -21.034,130.417 -78.435,92.011l-2.206,-83.93Z" style="fill:#ffd7b5;fill-rule:nonzero;"/></g><g><g><path d="M485.898,365.429c0,12.562 -10.108,22.745 -22.584,22.745c-12.469,0 -22.583,-10.183 -22.583,-22.745c-0,-12.561 10.108,-22.745 22.583,-22.745c12.47,-0.005 22.584,10.184 22.584,22.745Z" style="fill:#46134b;fill-rule:nonzero;"/><path d="M671.009,365.429c-0,12.562 -10.109,22.745 -22.584,22.745c-12.47,0 -22.584,-10.183 -22.584,-22.745c0,-12.561 10.108,-22.745 22.584,-22.745c12.47,-0.005 22.584,10.184 22.584,22.745Z" style="fill:#46134b;fill-rule:nonzero;"/></g></g><path d="M469.391,460.245c-9.555,14.636 -30.665,17.781 -47.149,7.021c-16.484,-10.759 -22.1,-31.35 -12.539,-45.985c9.556,-14.635 30.665,-17.78 47.149,-7.021c16.479,10.759 22.094,31.35 12.539,45.985Z" style="fill:#ff918b;fill-rule:nonzero;"/><path d="M642.579,460.245c9.555,14.636 30.664,17.781 47.149,7.021c16.484,-10.759 22.094,-31.35 12.538,-45.985c-9.555,-14.635 -30.664,-17.78 -47.148,-7.021c-16.485,10.759 -22.095,31.35 -12.539,45.985Z" style="fill:#ff918b;fill-rule:nonzero;"/><path d="M549.076,436.435c-8.622,-0 -17.043,-3.007 -21.639,-12.199c-2.373,-4.74 1.757,-9.89 6.975,-16.409c4.861,-6.065 10.367,-12.937 11.168,-19.987c3.479,-30.584 -5.685,-69.133 -5.777,-69.519c-0.374,-1.544 0.576,-3.099 2.125,-3.473c1.55,-0.334 3.105,0.576 3.473,2.125c0.392,1.613 9.498,39.921 5.904,71.524c-0.985,8.697 -7.309,16.594 -12.395,22.929c-2.805,3.496 -7.038,8.79 -6.318,10.23c8.668,17.336 35.744,4.337 36.021,4.198c1.423,-0.685 3.15,-0.115 3.853,1.319c0.703,1.423 0.115,3.151 -1.313,3.848c-5.466,2.695 -13.864,5.414 -22.077,5.414Z" style="fill:#ffb38d;fill-rule:nonzero;"/><path d="M414.19,334.339c-1.313,-0 -2.632,-0.444 -3.709,-1.354c-2.431,-2.05 -2.742,-5.685 -0.691,-8.115c1.18,-1.388 29.46,-34.034 86.28,-20.775c3.098,0.72 5.022,3.818 4.302,6.911c-0.725,3.099 -3.818,5.057 -6.917,4.303c-50.017,-11.629 -74.623,16.697 -74.859,16.985c-1.14,1.348 -2.77,2.045 -4.406,2.045Z" style="fill:#ad3320;fill-rule:nonzero;"/><path d="M695.62,334.339c-1.63,-0 -3.255,-0.691 -4.395,-2.028c-1.031,-1.203 -25.227,-28.556 -74.876,-17.002c-3.116,0.72 -6.197,-1.204 -6.917,-4.303c-0.72,-3.093 1.204,-6.191 4.302,-6.911c56.808,-13.265 85.105,19.375 86.28,20.775c2.051,2.43 1.74,6.065 -0.691,8.115c-1.077,0.91 -2.396,1.354 -3.703,1.354Z" style="fill:#ad3320;fill-rule:nonzero;"/><path d="M315.999,375.618l13.846,67.521c0,0 -20.107,7.758 -27.594,-7.217c-7.488,-14.975 2.58,-25.538 2.58,-25.538c0,-0 -26.546,-2.915 -25.423,-24.26c1.129,-21.34 32.611,-29.904 36.591,-10.506Z" style="fill:#ffac7e;fill-rule:nonzero;"/><path d="M798.096,375.618l-13.846,67.521c-0,0 20.107,7.758 27.594,-7.217c7.488,-14.975 -2.58,-25.538 -2.58,-25.538c-0,-0 26.546,-2.915 25.423,-24.26c-1.134,-21.34 -32.617,-29.904 -36.591,-10.506Z" style="fill:#ffac7e;fill-rule:nonzero;"/></g><path d="M514.754,461.167l67.371,8.294c0,-0 -42.38,26.276 -67.371,-8.294Z" style="fill:#ad3320;fill-rule:nonzero;"/><path d="M329.845,284.443c0,-0 -13.529,156.698 46.21,294.849c-17.699,-187.092 0,-361.881 0,-361.881c0,0 196.918,77.439 358.431,73.016c15.488,79.651 15.488,271.056 15.488,271.056c-0,0 37.012,-156.127 28.464,-299.878c-8.547,-143.75 -71.454,-121.627 -71.454,-121.627l-237.484,-15.488l-119.599,51.676l-20.056,39.039" style="fill:#d43e20;fill-rule:nonzero;"/><path d="M948.481,960.393c-93.134,94.574 -220.192,155.8 -361.42,163.863c-3.11,0.173 -6.278,0.346 -9.446,0.461c-1.036,0.058 -2.073,0.058 -3.11,0.115l-22.923,0c-2.938,0 -5.933,0 -8.87,-0.057c-2.707,0.057 -5.414,-0 -8.122,-0c-145.201,-5.242 -276.176,-66.525 -371.845,-162.942c14.745,-44.753 36.978,-79.829 62.551,-107.533c1.324,-1.44 2.649,-2.822 3.974,-4.205c12.268,-12.844 25.285,-24.018 38.532,-33.867c1.613,-1.152 3.168,-2.361 4.781,-3.455c9.33,-6.682 18.834,-12.729 28.222,-18.201c5.875,-3.456 11.98,-6.681 18.201,-9.676c0.633,-0.288 1.267,-0.634 1.958,-0.922c1.901,-0.921 3.859,-1.843 5.817,-2.649c5.069,-2.362 10.252,-4.551 15.379,-6.624c6.854,-2.765 13.708,-5.299 20.562,-7.718l207.175,144.914l192.374,-139.845c5.471,2.073 10.943,4.262 16.415,6.623c8.467,3.629 16.876,7.603 25.054,11.98c0.288,0.116 0.519,0.288 0.807,0.461c1.785,0.922 3.628,1.958 5.414,2.938c2.304,1.324 4.608,2.649 6.912,4.031c12.152,7.373 24.363,15.724 36.228,25.285c1.555,1.152 3.053,2.419 4.55,3.687c11.865,9.791 23.384,20.85 34.155,33.233c1.267,1.44 2.534,2.937 3.744,4.377c21.426,25.688 40.03,57.079 52.931,95.726Z" style="fill:#ffb240;fill-rule:nonzero;"/><path d="M809.961,794.054l-240.121,202.049l-248.876,-212.129c1.901,-0.921 3.859,-1.843 5.817,-2.649l243.116,207.233l234.65,-197.442c1.785,0.922 3.628,1.958 5.414,2.938Z" style="fill:#fff;fill-rule:nonzero;"/><path d="M857.651,827.057l-290.461,244.383l-299.388,-255.212c1.613,-1.152 3.168,-2.361 4.781,-3.455l294.607,251.122l285.911,-240.525c1.555,1.152 3.053,2.419 4.55,3.687Z" style="fill:#fff;fill-rule:nonzero;"/><path d="M229.27,850.095l322.312,274.737c-2.938,0 -5.933,0 -8.87,-0.057l-317.416,-270.475c1.324,-1.44 2.649,-2.822 3.974,-4.205Z" style="fill:#fff;fill-rule:nonzero;"/><path d="M895.55,864.667l-308.489,259.589c-3.11,0.173 -6.278,0.346 -9.446,0.461l314.191,-264.427c1.267,1.44 2.534,2.937 3.744,4.377Z" style="fill:#fff;fill-rule:nonzero;"/><path d="M432.834,149.148c0,-0 70.839,129.356 336.072,121.483c-143.065,-10.846 -336.072,-121.483 -336.072,-121.483Z" style="fill:#ad3320;fill-rule:nonzero;"/><path d="M508.62,127.036c0,0 69.03,97.949 272.087,126.281c-89.724,-28.332 -272.087,-126.281 -272.087,-126.281Z" style="fill:#ad3320;fill-rule:nonzero;"/></g></svg>