<?xml version="1.0" encoding="UTF-8" standalone="no"?><!DOCTYPE svg PUBLIC "-//W3C//DTD SVG 1.1//EN" "http://www.w3.org/Graphics/SVG/1.1/DTD/svg11.dtd"><svg width="100%" height="100%" viewBox="0 0 1113 1130" version="1.1" xmlns="http://www.w3.org/2000/svg" xmlns:xlink="http://www.w3.org/1999/xlink" xml:space="preserve" xmlns:serif="http://www.serif.com/" style="fill-rule:evenodd;clip-rule:evenodd;stroke-linejoin:round;stroke-miterlimit:2;"><g><path d="M1101.42,576.733c-0,149.709 -60.075,285.325 -157.467,384.142c-99.041,100.529 -236.654,162.942 -388.871,163.171l-1.141,-0c-151.763,-0.059 -289.092,-61.9 -388.134,-161.746c-98.245,-98.929 -158.95,-235.171 -158.95,-385.567c0,-302.208 245.042,-547.254 547.309,-547.254c302.271,0 547.254,245.046 547.254,547.254Z" style="fill:#ffb240;fill-rule:nonzero;"/><path d="M331.221,394.342c-0,-0 -12.163,-193.309 18.454,-219.65c30.621,-26.346 391.746,-35.709 411.783,-0.825c20.038,34.887 29.404,183.179 19.879,220.475l-450.116,-0Z" style="fill:#46134b;fill-rule:nonzero;"/><path d="M328.833,349.275c0,-0 -5.996,238.479 8.096,257.454c14.096,18.971 25.475,-9.487 25.475,-9.487c0,-0 9.488,41.05 26.567,49.933c17.075,8.883 25.804,-15.783 25.804,-15.783c-0,-0 55.775,89.412 91.825,7.712c36.046,-81.704 -0,-244.767 -0,-244.767l-177.767,-45.062Z" style="fill:#46134b;fill-rule:nonzero;"/><path d="M783.812,349.275c0,-0 5.996,238.479 -8.095,257.454c-14.092,18.971 -25.475,-9.487 -25.475,-9.487c-0,-0 -9.488,41.05 -26.563,49.933c-17.079,8.883 -25.808,-15.783 -25.808,-15.783c-0,-0 -55.775,89.412 -91.825,7.712c-36.046,-81.704 -0,-244.767 -0,-244.767l177.766,-45.062Z" style="fill:#46134b;fill-rule:nonzero;"/><g><g><path d="M943.958,960.875c-99.041,100.529 -236.654,162.942 -388.871,163.171l-1.141,-0c-151.763,-0.059 -289.092,-61.9 -388.134,-161.746c27.955,-84.725 83.067,-134.246 136.642,-165.396c1.654,-0.971 3.308,-1.942 5.021,-2.796c4.221,-2.454 8.617,-4.679 13.008,-6.791c7.529,-3.65 15.234,-7.017 22.934,-10.096c12.608,-5.079 25.333,-9.471 37.541,-13.35c47.867,-15.179 88.604,-22.538 88.604,-32.579l0,-192.955l171.105,0l-0,192.955c-0,11.241 49.979,19.112 104.92,38.225c9.984,3.425 20.196,7.304 30.238,11.641c8.387,3.592 16.717,7.529 24.817,11.867c1.312,0.683 2.625,1.425 3.937,2.167c3.079,1.654 6.046,3.425 9.071,5.191c51.404,31.15 103.208,79.704 130.308,160.492Z" style="fill:#98475f;fill-rule:nonzero;"/></g><path d="M640.658,572.112l0,108.975c-19.396,15.117 -45.529,28.696 -78.104,30.809c-47.467,3.021 -77.079,-16.946 -92.996,-33.15l0,-97.104l167.163,-15.634l3.937,6.104Z" style="fill:#7a2d53;fill-rule:nonzero;"/><path d="M355.792,213.496c-0,-0 -41.963,248.396 14.525,357.791c28.25,54.696 110.741,92.605 184.787,94.15c74.042,1.538 154.129,-40.675 189.592,-88.666c70.929,-95.988 5.966,-363.275 5.966,-363.275c0,-0 -158.629,-125.825 -394.87,-0Z" style="fill:#98475f;fill-rule:nonzero;"/><g><path d="M349.675,381.792c-0,-0 -46.229,-65.484 -79.879,-8.005c-23.917,40.842 20.837,129.184 77.696,91.142l2.183,-83.137Z" style="fill:#98475f;fill-rule:nonzero;"/></g><g><path d="M761.458,381.225c0,-0 46.229,-65.479 79.879,-8.004c23.917,40.846 -20.833,129.187 -77.695,91.141l-2.184,-83.137Z" style="fill:#98475f;fill-rule:nonzero;"/></g><g><g><path d="M485.8,371.812c-0,12.442 -10.013,0 -22.371,0c-12.35,0 -22.371,12.442 -22.371,0c0,-12.445 10.013,-22.529 22.371,-22.529c12.354,-0.008 22.371,10.084 22.371,22.529Z" style="fill:#46134b;fill-rule:nonzero;"/><path d="M669.162,371.812c0,12.442 -10.012,0 -22.37,0c-12.35,0 -22.371,12.442 -22.371,0c-0,-12.445 10.012,-22.529 22.371,-22.529c12.354,-0.008 22.37,10.084 22.37,22.529Z" style="fill:#46134b;fill-rule:nonzero;"/></g></g><path d="M435.217,431.5c-9.467,14.5 -30.375,17.612 -46.705,6.954c-16.329,-10.654 -21.883,-31.054 -12.42,-45.55c9.466,-14.496 30.375,-17.612 46.704,-6.954c16.329,10.658 21.887,31.046 12.421,45.55Z" style="fill:#ff918b;fill-rule:nonzero;"/><path d="M675.233,431.5c9.467,14.5 30.375,17.612 46.704,6.954c16.33,-10.654 21.888,-31.054 12.421,-45.55c-9.466,-14.496 -30.375,-17.612 -46.704,-6.954c-16.321,10.658 -21.887,31.046 -12.421,45.55Z" style="fill:#ff918b;fill-rule:nonzero;"/><path d="M522.629,335.896c-0.858,-0 -1.729,-0.096 -2.604,-0.3c-50.413,-11.75 -111.563,-0.029 -112.175,0.083c-6.163,1.192 -12.175,-2.817 -13.392,-9.004c-1.208,-6.175 2.813,-12.175 8.996,-13.388c2.688,-0.533 66.475,-12.808 121.758,0.084c6.138,1.429 9.955,7.566 8.525,13.704c-1.233,5.267 -5.925,8.821 -11.108,8.821Z" style="fill:#46134b;fill-rule:nonzero;"/><path d="M708.554,340.596c-1.571,-0 -3.162,-0.325 -4.683,-1.009c-0.688,-0.3 -43.304,-18.683 -97.588,-0.845c-6,1.97 -12.437,-1.292 -14.4,-7.271c-1.966,-5.988 1.292,-12.438 7.275,-14.4c63.254,-20.804 112.071,0.804 114.117,1.733c5.737,2.608 8.279,9.367 5.675,15.108c-1.908,4.196 -6.054,6.684 -10.396,6.684Z" style="fill:#46134b;fill-rule:nonzero;"/><path d="M317.504,381.904l13.717,66.883c-0,0 -19.917,7.684 -27.334,-7.15c-7.416,-14.833 2.555,-25.295 2.555,-25.295c-0,-0 -26.296,-2.888 -25.184,-24.03c1.117,-21.141 32.304,-29.625 36.246,-10.408Z" style="fill:#7a2d53;fill-rule:nonzero;"/><path d="M795.05,381.904l-13.713,66.883c0,0 19.917,7.684 27.334,-7.15c7.416,-14.833 -2.559,-25.295 -2.559,-25.295c0,-0 26.296,-2.888 25.184,-24.03c-1.121,-21.141 -32.309,-29.625 -36.246,-10.408Z" style="fill:#7a2d53;fill-rule:nonzero;"/></g><g><path d="M322.233,270.537c0,0 381.663,45.184 505.967,-4.508c124.3,-49.7 -46.592,-110.621 -46.592,-110.621c0,0 -460.687,-8.05 -459.375,115.129Z" style="fill:#572aac;fill-rule:nonzero;"/><path d="M781.587,155.396c0,-0 -120.441,85.637 -369.079,109.546c-28.412,2.737 -58.479,4.675 -90.258,5.587c-0,0 -46.496,-198.542 157.867,-252.175c6.962,-1.825 14.208,-3.479 21.737,-4.962c229.296,-44.788 279.733,142.004 279.733,142.004Z" style="fill:#451378;fill-rule:nonzero;"/></g><path d="M556.958,446.371c-1.041,-0 -2.037,-0.571 -2.546,-1.554c-0.712,-1.405 -0.158,-3.121 1.242,-3.838l39.546,-20.187l-25.604,-93.163c-0.417,-1.517 0.471,-3.092 1.996,-3.504c1.5,-0.433 3.087,0.475 3.504,2l26.221,95.396c0.358,1.308 -0.246,2.683 -1.45,3.3l-41.609,21.241c-0.416,0.209 -0.862,0.309 -1.3,0.309Z" style="fill:#7a2d53;fill-rule:nonzero;"/><path d="M602.725,528.125c-11.983,7.704 -28.754,12.383 -51.463,10.212c-35.029,-3.308 -54.6,-18.254 -64.525,-34.116c-8.616,-13.809 -9.929,-28.354 -7.816,-36.629c4.675,-18.2 35.371,5.137 68.462,11.354c26.646,4.962 72.971,-8.329 77.534,-3.992c7.02,6.558 3.483,36.796 -22.192,53.171Z" style="fill:#7e2a20;fill-rule:nonzero;"/><path d="M602.725,528.125c-11.983,7.704 -28.754,12.383 -51.463,10.212c-35.029,-3.308 -54.6,-18.254 -64.525,-34.116c27.613,-9.642 82.155,-20.938 115.988,23.904Z" style="fill:#d43e20;fill-rule:nonzero;"/><path d="M943.958,960.875c-37.596,38.167 -80.729,70.804 -128.141,96.646c-77.475,42.279 -166.309,66.412 -260.73,66.525l-1.141,-0c-97.675,-0.059 -189.363,-25.675 -268.667,-70.575c-43.987,-24.817 -84.15,-55.571 -119.467,-91.171c18.884,-57.338 50.263,-98.529 85.121,-128.825c16.717,-14.492 34.234,-26.475 51.521,-36.571c1.654,-0.971 3.308,-1.942 5.021,-2.796c5.592,46.842 35.942,186.279 199,208.7l47.696,63.1l55.058,-64.183c152.275,-23.333 187.592,-140.979 195.35,-206.533c3.079,1.654 6.046,3.425 9.071,5.191c13.179,7.988 26.358,17.059 39.137,27.559c37.142,30.52 70.975,72.8 91.171,132.933Z" style="fill:#b5b1ee;fill-rule:nonzero;"/><path d="M285.279,1053.47c-43.987,-24.817 -84.15,-55.571 -119.467,-91.171c18.884,-57.338 50.263,-98.529 85.121,-128.825c21.796,37.542 52.492,112.85 34.346,219.996Z" style="fill:#98475f;fill-rule:nonzero;"/><path d="M943.958,960.875c-37.596,38.167 -80.729,70.804 -128.141,96.646c-20.65,-114.904 14.891,-193.809 36.97,-229.579c37.142,30.52 70.975,72.8 91.171,132.933Z" style="fill:#98475f;fill-rule:nonzero;"/><path d="M405.65,801.85l139.075,31.625c0.004,-0 -63.408,-62.075 -139.075,-31.625Z" style="fill:#7a2d53;fill-rule:nonzero;"/><path d="M710.196,801.85l-139.071,31.625c-0.008,-0 63.408,-62.075 139.071,-31.625Z" style="fill:#7a2d53;fill-rule:nonzero;"/><path d="M598.983,74.179c32.692,-13.542 70.229,2.008 83.771,34.7c13.546,32.696 -2.004,70.233 -34.696,83.775c-32.696,13.542 -70.233,-2.004 -83.775,-34.7c-13.546,-32.692 2.004,-70.233 34.7,-83.775Z" style="fill:#ffbc18;"/><path d="M655.642,133.467c-0,17.783 -14.417,32.2 -32.2,32.2c-17.784,-0 -32.2,-14.417 -32.2,-32.2c-0,-17.784 14.416,-32.2 32.2,-32.2c17.783,-0 32.2,14.416 32.2,32.2Z" style="fill:#ff9e18;fill-rule:nonzero;"/><path d="M412.508,264.942c-28.412,2.737 -58.479,4.675 -90.258,5.587c-0,0 -46.496,-198.542 157.867,-252.175c-45.53,46.388 -106.175,134.075 -67.609,246.588Z" style="fill:#46134b;fill-opacity:0.3;fill-rule:nonzero;"/></g></svg>