<?xml version="1.0" encoding="UTF-8" standalone="no"?><!DOCTYPE svg PUBLIC "-//W3C//DTD SVG 1.1//EN" "http://www.w3.org/Graphics/SVG/1.1/DTD/svg11.dtd"><svg width="100%" height="100%" viewBox="0 0 1113 1130" version="1.1" xmlns="http://www.w3.org/2000/svg" xmlns:xlink="http://www.w3.org/1999/xlink" xml:space="preserve" xmlns:serif="http://www.serif.com/" style="fill-rule:evenodd;clip-rule:evenodd;stroke-linejoin:round;stroke-miterlimit:2;"><g><path d="M1090.82,587.214c-0,147.887 -59.727,281.866 -156.244,379.112c-93.32,93.937 -220.962,153.608 -362.568,158.543c-6.338,0.224 -12.731,0.337 -19.124,0.337c-6.562,-0 -13.123,-0.113 -19.685,-0.393c-142.223,-5.047 -270.426,-65.447 -363.69,-160.225c-95.619,-97.134 -154.617,-230.328 -154.617,-377.374c-0,-297.121 240.871,-537.992 537.992,-537.992c297.121,-0 537.936,240.871 537.936,537.992Z" style="fill:#ffb240;fill-rule:nonzero;"/><path d="M816.287,213.709c31.08,-54.702 -11.817,-104.435 -53.777,-89.517c10.257,-59.677 -55.022,-67.136 -55.022,-67.136c0,0 -21.748,-62.166 -82.67,-27.351c-25.708,-45.213 -54.343,-27.216 -68.661,-13.162c-14.323,-14.054 -42.953,-32.051 -68.661,13.162c-60.921,-34.81 -82.67,27.351 -82.67,27.351c0,0 -65.284,7.459 -55.021,67.136c-41.961,-14.918 -84.858,34.815 -53.772,89.517c-44.758,14.918 -46.003,89.518 -3.729,118.008c-18.653,50.866 48.488,69.732 48.488,69.732l215.371,-120.419l215.371,120.419c-0,-0 67.135,-18.866 48.488,-69.732c42.269,-28.49 41.024,-103.09 -3.735,-118.008Z" style="fill:#6a9dc4;fill-rule:nonzero;"/><g><g><path d="M934.58,966.326c-93.32,93.937 -220.962,153.608 -362.568,158.543l-20.302,0c-6.169,0 -12.338,0 -18.507,-0.056c-142.223,-5.047 -270.426,-65.447 -363.69,-160.225c26.863,-80.366 78.683,-128.371 129.829,-158.88c1.346,-0.841 2.692,-1.626 4.038,-2.411c5.721,-3.365 11.665,-6.506 17.722,-9.422c7.403,-3.589 14.974,-6.898 22.545,-9.927c12.394,-4.991 24.9,-9.309 36.902,-13.123c47.052,-14.918 87.095,-22.152 87.095,-32.022l-0,-189.669l168.189,0l-0,189.669c-0,11.048 49.127,18.787 103.134,37.574c9.814,3.365 19.853,7.179 29.723,11.441c8.244,3.533 16.432,7.403 24.396,11.665c4.318,2.299 8.58,4.711 12.786,7.235c0.786,0.504 1.627,0.953 2.412,1.458c50.137,30.901 100.218,78.963 126.296,158.15Z" style="fill:#98475f;fill-rule:nonzero;"/></g><path d="M317.81,917.557l480.867,0l-24.569,115.31l-208.714,63.737l-247.584,-111.16" style="fill:#ffb240;fill-rule:nonzero;"/><path d="M635.833,582.335l-0,107.116c-19.068,14.861 -44.754,28.209 -76.776,30.284c-46.66,2.972 -75.767,-16.656 -91.413,-32.584l-0,-95.451l164.319,-15.366l3.87,6.001Z" style="fill:#7a2d53;fill-rule:nonzero;"/><path d="M345.29,229.822c0,-0 -40.474,224.142 18.025,331.667c29.246,53.766 111.686,85.183 188.361,86.697c76.675,1.514 147.579,-26.869 184.302,-74.045c73.444,-94.352 18.198,-344.325 18.198,-344.325c0,0 -164.263,-123.677 -408.886,0.006Z" style="fill:#98475f;fill-rule:nonzero;"/><g><path d="M349.805,395.252c-0,-0 -45.443,-64.365 -78.52,-7.869c-23.51,40.149 20.481,126.986 76.372,89.591l2.148,-81.722Z" style="fill:#98475f;fill-rule:nonzero;"/></g><g><path d="M754.574,394.696c0,0 45.443,-64.365 78.52,-7.868c23.51,40.149 -20.481,126.986 -76.372,89.591l-2.148,-81.723Z" style="fill:#98475f;fill-rule:nonzero;"/></g><g><g><path d="M483.604,385.443c0,12.231 -9.842,22.147 -21.989,22.147c-12.148,-0 -21.99,-9.916 -21.99,-22.147c0,-12.232 9.842,-22.147 21.99,-22.147c12.147,0 21.989,9.915 21.989,22.147Z" style="fill:#46134b;fill-rule:nonzero;"/><path d="M663.851,385.443c0,12.231 -9.842,22.147 -21.99,22.147c-12.147,-0 -21.989,-9.916 -21.989,-22.147c-0,-12.232 9.842,-22.147 21.989,-22.147c12.148,0 21.99,9.915 21.99,22.147Z" style="fill:#46134b;fill-rule:nonzero;"/></g></g><path d="M433.888,444.116c-9.304,14.25 -29.858,17.312 -45.909,6.836c-16.05,-10.476 -21.518,-30.525 -12.209,-44.776c9.304,-14.25 29.858,-17.312 45.909,-6.836c16.045,10.476 21.513,30.52 12.209,44.776Z" style="fill:#ff918b;fill-rule:nonzero;"/><path d="M669.818,444.116c9.304,14.25 29.858,17.312 45.909,6.836c16.05,-10.476 21.518,-30.525 12.209,-44.776c-9.31,-14.25 -29.858,-17.312 -45.909,-6.836c-16.045,10.476 -21.513,30.52 -12.209,44.776Z" style="fill:#ff918b;fill-rule:nonzero;"/><path d="M545.126,454.58c-8.395,0 -16.595,-2.927 -21.07,-11.878c-2.737,-5.484 1.419,-10.448 6.236,-16.202c4.229,-5.053 9.495,-11.339 11.716,-19.64c2.899,-10.851 0.892,-17.211 -1.24,-23.946c-3.566,-11.273 -7.251,-22.927 13.107,-52.785c0.875,-1.278 2.613,-1.609 3.897,-0.74c1.279,0.869 1.61,2.619 0.735,3.892c-18.821,27.615 -15.703,37.491 -12.394,47.939c2.17,6.87 4.638,14.654 1.307,27.082c-2.541,9.5 -8.244,16.314 -12.832,21.793c-4.105,4.896 -6.561,8.009 -5.518,10.095c8.44,16.88 34.81,4.223 35.073,4.088c1.386,-0.667 3.068,-0.112 3.752,1.284c0.684,1.386 0.112,3.068 -1.278,3.747c-5.323,2.624 -13.494,5.271 -21.491,5.271Z" style="fill:#7a2d53;fill-rule:nonzero;"/><path d="M413.783,355.164c-0.898,0 -1.812,-0.213 -2.659,-0.673c-2.72,-1.469 -3.74,-4.862 -2.277,-7.587c0.309,-0.578 31.412,-57.047 87.55,-43.952c3.017,0.701 4.89,3.718 4.189,6.73c-0.707,3.017 -3.718,4.918 -6.735,4.189c-47.709,-11.104 -74.034,36.325 -75.133,38.349c-1.01,1.879 -2.939,2.944 -4.935,2.944Z" style="fill:#6a9dc4;fill-rule:nonzero;"/><path d="M687.815,355.164c-2.019,0 -3.971,-1.093 -4.975,-3c-0.981,-1.868 -24.586,-45.572 -72.205,-34.507c-3.017,0.695 -6.029,-1.167 -6.735,-4.189c-0.701,-3.012 1.177,-6.029 4.189,-6.73c56.205,-13.123 84.414,39.7 84.7,40.238c1.425,2.743 0.365,6.125 -2.378,7.56c-0.835,0.426 -1.721,0.628 -2.596,0.628Z" style="fill:#6a9dc4;fill-rule:nonzero;"/><path d="M318.18,395.364l13.482,65.744c0,0 -19.578,7.555 -26.869,-7.027c-7.29,-14.581 2.513,-24.866 2.513,-24.866c-0,-0 -25.848,-2.838 -24.755,-23.622c1.1,-20.778 31.754,-29.118 35.629,-10.229Z" style="fill:#7a2d53;fill-rule:nonzero;"/><path d="M787.595,395.364l-13.482,65.744c0,0 19.578,7.555 26.869,-7.027c7.291,-14.581 -2.512,-24.866 -2.512,-24.866c-0,-0 25.848,-2.838 24.754,-23.622c-1.105,-20.778 -31.759,-29.118 -35.629,-10.229Z" style="fill:#7a2d53;fill-rule:nonzero;"/></g><path d="M521.017,500.085c-0,0 -1.515,20.834 39.459,18.367c40.973,-2.468 30.766,-21.126 30.766,-21.126c0,-0 -46.851,-4.526 -70.225,2.759Z" style="fill:#6a9dc4;fill-rule:nonzero;"/><path d="M508.74,496.215c0,0 13.723,6.422 46.189,4.975c32.466,-1.453 47.013,-6.399 47.013,-6.399c0,0 -13.941,-3.864 -23.302,-9.287c-7.789,-4.509 -11.188,-18.215 -24.098,-3.382c-14.301,-14.615 -19.55,1.391 -26.751,7.038c-6.786,5.328 -19.051,7.055 -19.051,7.055Z" style="fill:#88b1d0;fill-rule:nonzero;"/><path d="M331.769,376.29c-0,0 27.62,-11.71 20.963,-47.176c27.441,-15.506 39.083,-73.719 22.455,-92.848c54.052,19.959 89.271,-27.441 92.451,-43.245c50.58,62.368 116.28,-6.651 116.28,-6.651c-0,-0 44.467,84.823 111.63,59.042c-4.357,44.075 45.539,35.915 45.539,35.915c-0,0 -28.277,54.444 12.327,68.773c5.967,28.366 20.144,35.337 20.144,35.337c0,0 32.393,-83.158 28.232,-99.534c-4.156,-16.375 -89.815,-138.622 -89.815,-138.622l-86.484,-14.139l-73.764,-5.821l-164.903,26.611l-69.02,72.351l13.965,150.007Z" style="fill:#6a9dc4;fill-rule:nonzero;"/><path d="M286.309,575.93c-27.811,0 -50.434,-22.623 -50.434,-50.434c-0,-27.811 22.623,-50.435 50.434,-50.435c27.811,0 50.44,22.624 50.44,50.435c-0,27.811 -22.629,50.434 -50.44,50.434Zm-0,-95.26c-24.715,-0 -44.826,20.111 -44.826,44.826c-0,24.715 20.111,44.826 44.826,44.826c24.721,-0 44.832,-20.111 44.832,-44.826c-0,-24.715 -20.111,-44.826 -44.832,-44.826Z" style="fill:#fff;fill-rule:nonzero;"/><path d="M817.644,575.93c-27.811,0 -50.44,-22.623 -50.44,-50.434c0,-27.811 22.629,-50.435 50.44,-50.435c27.811,0 50.434,22.624 50.434,50.435c0,27.811 -22.629,50.434 -50.434,50.434Zm-0,-95.26c-24.721,-0 -44.832,20.111 -44.832,44.826c0,24.715 20.111,44.826 44.832,44.826c24.715,-0 44.826,-20.111 44.826,-44.826c0,-24.715 -20.111,-44.826 -44.826,-44.826Z" style="fill:#fff;fill-rule:nonzero;"/><path d="M934.58,966.326c-93.32,93.937 -220.962,153.608 -362.568,158.543l-20.302,0c-6.169,0 -12.338,0 -18.507,-0.056c-142.223,-5.047 -270.426,-65.447 -363.69,-160.225c22.938,-68.532 63.989,-113.566 107.284,-144.243c7.515,-5.271 15.03,-10.15 22.545,-14.637l266.052,257.808l242.89,-255.34c8.244,5.103 16.544,10.655 24.676,16.768c41.332,30.845 79.86,75.262 101.62,141.382Z" style="fill:#c746ac;fill-rule:nonzero;"/><path d="M832.96,824.944l-267.566,271.66l-288.597,-276.259c7.515,-5.271 15.03,-10.15 22.545,-14.637l266.052,257.808l242.89,-255.34c8.244,5.103 16.544,10.655 24.676,16.768Z" style="fill:#fff;fill-rule:nonzero;"/></g></svg>