<?xml version="1.0" encoding="UTF-8" standalone="no"?><!DOCTYPE svg PUBLIC "-//W3C//DTD SVG 1.1//EN" "http://www.w3.org/Graphics/SVG/1.1/DTD/svg11.dtd"><svg width="100%" height="100%" viewBox="0 0 1113 1130" version="1.1" xmlns="http://www.w3.org/2000/svg" xmlns:xlink="http://www.w3.org/1999/xlink" xml:space="preserve" xmlns:serif="http://www.serif.com/" style="fill-rule:evenodd;clip-rule:evenodd;stroke-linejoin:round;stroke-miterlimit:2;"><g><path d="M1086.78,593.617c-0,150.903 -62.9,287.175 -163.871,383.879c-91.106,87.338 -213.302,142.59 -348.355,147.356c-6.429,0.277 -12.857,0.387 -19.341,0.387c-6.207,0 -12.414,-0.11 -18.62,-0.332c-145.583,-4.988 -276.258,-68.552 -369.304,-167.805c-89.112,-95.041 -143.698,-222.89 -143.698,-363.485c-0,-293.603 238.019,-531.622 531.622,-531.622c293.603,0 531.567,238.019 531.567,531.622Z" style="fill:#6a9dc4;fill-rule:nonzero;"/><path d="M841.51,625.089c-88.519,-22.765 -79.713,-117.319 -46.379,-224.818c33.339,-107.5 -32.791,-218.607 -84.246,-251.497c-81.902,-52.348 -253.647,-53.794 -335.549,-1.446c-51.455,32.89 -117.585,143.997 -84.246,251.496c33.339,107.499 44.345,213.752 -46.379,224.819c-90.73,11.067 -139.725,139.375 -112.847,217.01c29.942,86.485 82.301,193.69 303.661,56.238c53.079,-32.963 86.773,-92.204 107.383,-163.189c20.571,71.622 54.354,131.451 107.793,164.63c221.361,137.452 301.118,44.201 320.287,-28.529c31.937,-121.177 -10.918,-214.229 -129.478,-244.714Z" style="fill:#c746ac;fill-rule:nonzero;"/><path d="M419.765,528.768c-0,-0 3.186,116.626 -106.042,161.127c-109.229,44.5 -76.732,174.975 106.053,244.27c182.784,69.294 431.332,-28.912 406.367,-171.147c-24.966,-142.235 -186.16,-38.144 -170.787,-245.035l-235.591,10.785Z" style="fill:#46134b;fill-opacity:0.2;fill-rule:nonzero;"/><g><g><path d="M922.907,977.496c-91.106,87.338 -213.302,142.59 -348.355,147.356c-10.973,0.055 -21.89,0.055 -32.863,0.055l-5.098,-0c-145.583,-4.988 -276.258,-68.552 -369.304,-167.805c28.152,-75.811 79.247,-121.032 129.012,-149.96c5.653,-3.325 11.527,-6.429 17.512,-9.31c7.316,-3.547 14.797,-6.817 22.278,-9.809c12.248,-4.932 24.606,-9.2 36.465,-12.968c17.346,-5.486 33.694,-9.975 47.438,-13.854c23.053,-6.595 38.626,-11.694 38.626,-17.79l-0,-187.422l166.198,-0l-0,187.422c-0,9.089 33.472,15.905 75.423,28.596c8.534,2.549 17.457,5.376 26.49,8.534c9.698,3.325 19.618,7.094 29.371,11.306c8.146,3.491 16.237,7.315 24.107,11.526c4.267,2.273 8.479,4.656 12.635,7.149c52.203,31.644 104.906,81.852 130.065,166.974Z" style="fill:#ffd7b5;fill-rule:nonzero;"/></g><path d="M624.816,588.796l-0,105.848c-18.842,14.686 -44.224,27.875 -75.867,29.925c-46.108,2.938 -74.87,-16.459 -90.331,-32.197l-0,-94.321l162.374,-15.185l3.824,5.93Z" style="fill:#ffc6a6;fill-rule:nonzero;"/><path d="M366.475,240.457c-0,0 -56.327,221.488 -1.452,327.74c27.437,53.129 105.543,85.826 177.464,87.328c71.921,1.496 137.663,-28.203 172.111,-74.82c68.895,-93.235 -5.027,-340.248 -5.027,-340.248c0,0 -113.628,-122.218 -343.096,0Z" style="fill:#ffd7b5;fill-rule:nonzero;"/><g><path d="M353.529,427.758c0,-0 -42.355,-59.99 -73.184,-7.332c-21.912,37.424 19.091,118.361 71.184,83.509l2,-76.177Z" style="fill:#ffd7b5;fill-rule:nonzero;"/></g><g><path d="M730.802,427.242c-0,0 42.356,-59.989 73.185,-7.331c21.912,37.423 -19.092,118.361 -71.179,83.509l-2.006,-76.178Z" style="fill:#ffd7b5;fill-rule:nonzero;"/></g><g><g><path d="M474.395,394.236c0,12.086 -9.731,21.884 -21.729,21.884c-11.998,0 -21.729,-9.798 -21.729,-21.884c-0,-12.087 9.726,-21.885 21.729,-21.885c12.003,-0.005 21.729,9.798 21.729,21.885Z" style="fill:#46134b;fill-rule:nonzero;"/><path d="M652.508,394.236c-0,12.086 -9.726,21.884 -21.73,21.884c-11.997,0 -21.729,-9.798 -21.729,-21.884c0,-12.087 9.726,-21.885 21.729,-21.885c11.998,-0.005 21.73,9.798 21.73,21.885Z" style="fill:#46134b;fill-rule:nonzero;"/></g></g><path d="M425.262,452.214c-9.194,14.081 -29.504,17.107 -45.365,6.755c-15.861,-10.352 -21.264,-30.164 -12.064,-44.245c9.193,-14.082 29.504,-17.108 45.365,-6.756c15.86,10.352 21.263,30.158 12.064,44.246Z" style="fill:#ff918b;fill-rule:nonzero;"/><path d="M658.404,452.214c9.194,14.081 29.505,17.107 45.365,6.755c15.861,-10.352 21.264,-30.164 12.065,-44.245c-9.194,-14.082 -29.505,-17.108 -45.365,-6.756c-15.855,10.352 -21.259,30.158 -12.065,44.246Z" style="fill:#ff918b;fill-rule:nonzero;"/><path d="M535.189,462.555c-8.297,-0 -16.399,-2.893 -20.821,-11.738c-2.909,-5.824 1.219,-9.997 5.592,-14.42c4.616,-4.666 10.357,-10.479 12.092,-20.742c4.178,-24.744 -5.686,-66.33 -5.786,-66.746c-0.36,-1.485 0.56,-2.987 2.051,-3.341c1.496,-0.333 2.987,0.565 3.341,2.045c0.422,1.745 10.231,43.098 5.864,68.961c-2.029,11.998 -8.723,18.776 -13.617,23.719c-4.494,4.539 -5.569,6.057 -4.577,8.041c8.34,16.681 34.392,4.173 34.658,4.04c1.369,-0.659 3.032,-0.111 3.708,1.269c0.676,1.369 0.11,3.032 -1.264,3.702c-5.265,2.594 -13.344,5.21 -21.241,5.21Z" style="fill:#ffb38d;fill-rule:nonzero;"/><path d="M419.077,359.616c-1.507,0 -3.009,-0.604 -4.101,-1.806c-2.044,-2.256 -1.906,-5.725 0.333,-7.787c0.826,-0.759 20.71,-18.559 60.073,-11.454c3.014,0.548 5.009,3.43 4.466,6.439c-0.548,3.015 -3.413,5.01 -6.439,4.472c-33.6,-6.101 -49.931,8.113 -50.613,8.723c-1.064,0.942 -2.394,1.413 -3.719,1.413Z" style="fill:#b364aa;fill-rule:nonzero;"/><path d="M655.351,353.803c-1.33,-0 -2.666,-0.477 -3.724,-1.447c-0.743,-0.653 -17.075,-14.791 -50.613,-8.711c-3.021,0.548 -5.897,-1.463 -6.44,-4.472c-0.549,-3.01 1.452,-5.897 4.467,-6.44c39.385,-7.099 59.247,10.69 60.073,11.449c2.25,2.073 2.394,5.581 0.321,7.831c-1.097,1.191 -2.588,1.79 -4.084,1.79Z" style="fill:#b364aa;fill-rule:nonzero;"/><path d="M324.053,427.863l12.568,61.275c0,0 -18.243,7.044 -25.043,-6.55c-6.794,-13.594 2.344,-23.176 2.344,-23.176c0,0 -24.09,-2.649 -23.07,-22.017c1.02,-19.363 29.593,-27.138 33.201,-9.532Z" style="fill:#ffac7e;fill-rule:nonzero;"/><path d="M761.575,427.863l-12.568,61.275c-0,0 18.243,7.044 25.043,-6.55c6.794,-13.594 -2.344,-23.176 -2.344,-23.176c-0,0 24.09,-2.649 23.07,-22.017c-1.02,-19.363 -29.587,-27.138 -33.201,-9.532Z" style="fill:#ffac7e;fill-rule:nonzero;"/></g><path d="M663.597,186.137c-57.662,-11.854 -210.931,-0 -210.931,-0l-111.661,54.459l-4.389,82.167c-0,0 18.648,-0.282 47.997,-0.665l11.932,-46.905l6.605,46.673c2.433,-0.028 4.921,-0.061 7.454,-0.089l20.333,-62.439l4.721,62.151c39.114,-0.438 85.355,-0.876 130.243,-1.109l5.436,-85.548l8.962,85.476c9.82,-0.044 19.523,-0.072 29.027,-0.088l43.176,-95.479l7.714,95.534c45.188,0.216 79.541,0.931 88.791,2.488c34.237,5.764 -27.748,-124.773 -85.41,-136.626Z" style="fill:#c746ac;fill-rule:nonzero;"/><path d="M546.754,508.291c-31.865,-0 -47.964,-16.01 -48.806,-16.864c-2.139,-2.194 -2.095,-5.697 0.094,-7.836c2.183,-2.139 5.675,-2.106 7.819,0.072c0.948,0.953 22.483,21.741 66.834,9.931c2.971,-0.781 5.996,0.975 6.783,3.935c0.787,2.953 -0.969,5.99 -3.929,6.783c-10.718,2.843 -20.316,3.979 -28.795,3.979Z" style="fill:#cc574a;fill-rule:nonzero;"/><path d="M491.88,108.779c-0,0 12.02,-102.55 -59.519,-108.247c-17.407,28.49 -24.528,44.234 -24.528,44.234c0,0 69.693,21.707 57.263,81.542l26.784,-17.529Z" style="fill:#ff8b40;fill-rule:nonzero;"/><path d="M812.294,206.58c-12.081,26.601 -27.543,45.332 -27.543,45.332c0,-0 -270.161,-66.058 -501.586,64.949c0,0 -42.172,-16.459 -44.832,-74.148c-1.331,-29.483 14.63,-60.239 47.548,-85.233c30.203,-22.943 74.758,-41.009 133.169,-48.712c97.147,-12.802 259.465,-113.939 369.137,-32.752c51.76,38.349 41.397,92.492 24.107,130.564Z" style="fill:#ffb240;fill-rule:nonzero;"/><path d="M812.294,206.58c-12.081,26.601 -27.543,45.332 -27.543,45.332c0,-0 -270.161,-66.058 -501.586,64.949c0,0 -42.172,-16.459 -44.832,-74.148c-1.331,-29.483 14.63,-60.239 47.548,-85.233c-7.26,39.513 -2.328,88.17 67.776,84.401c104.573,-5.652 319.649,-135.163 458.637,-35.301Z" style="fill:#ff8b40;fill-rule:nonzero;"/><path d="M922.907,977.496c-48.268,46.329 -105.293,83.57 -168.303,109.062c-24.107,9.753 -49.1,17.789 -74.814,23.94c-33.916,8.202 -69.161,13.079 -105.238,14.354c-10.973,0.055 -21.89,0.055 -32.863,0.055l-5.098,-0c-40.455,-1.386 -79.746,-7.315 -117.431,-17.235c-25.99,-6.872 -51.261,-15.683 -75.534,-26.213c-67.111,-29.149 -127.017,-71.765 -176.339,-124.357c28.152,-75.811 79.247,-121.032 129.012,-149.96c5.653,-3.325 11.527,-6.429 17.512,-9.31c7.316,-3.547 14.797,-6.817 22.278,-9.809c12.248,-4.932 24.606,-9.2 36.465,-12.968c5.154,-1.663 10.252,-3.159 15.185,-4.655c0.055,-0.056 0.055,-0.056 0.11,-0c0.167,-0.056 0.278,-0.111 0.388,-0.111c11.472,-3.436 22.223,-6.428 31.755,-9.088c4.156,30.258 25.714,126.74 132.891,129.455c88.447,2.217 130.121,-72.763 147.356,-118.649c7.537,2.272 15.406,4.711 23.386,7.481c0,0 0.111,0 0.277,0.056c0.943,0.332 1.885,0.665 2.827,0.997c9.698,3.325 19.618,7.094 29.371,11.306c8.146,3.491 16.237,7.315 24.107,11.526c4.267,2.273 8.479,4.656 12.635,7.149c52.203,31.644 104.906,81.852 130.065,166.974Z" style="fill:#ff8b40;fill-rule:nonzero;"/><path d="M754.604,1086.56c-24.107,9.753 -49.1,17.789 -74.814,23.94c-33.916,8.202 -69.161,13.079 -105.238,14.354c-10.973,0.055 -21.89,0.055 -32.863,0.055l-5.098,-0c-40.455,-1.386 -79.746,-7.315 -117.431,-17.235c-25.99,-6.872 -51.261,-15.683 -75.534,-26.213l41.841,-138.378c-0,0 74.647,260.63 330.067,93.656c16.853,17.402 29.649,34.027 39.07,49.821Z" style="fill:#46134b;fill-opacity:0.2;fill-rule:nonzero;"/><path d="M419.16,1107.67c-97.867,-25.825 -184.707,-78.915 -251.873,-150.57c0,0 24.938,-143.698 32.974,-150.126c7.758,-6.207 176.893,-34.803 187.478,-36.576c0.055,-0.056 0.055,-0.056 0.11,-0c0.278,-0.111 0.388,-0.111 0.388,-0.111l30.923,337.383Z" style="fill:#451378;fill-rule:nonzero;"/><path d="M922.907,977.496c-66.723,64.007 -150.182,110.724 -243.117,133.002l43.835,-331.01c0,0 0.111,0 0.277,0.056c7.593,1.441 167.473,32.253 175.397,38.515c8.036,6.429 23.608,159.437 23.608,159.437Z" style="fill:#451378;fill-rule:nonzero;"/><path d="M574.119,938.981c0,-10.458 -8.478,-18.937 -18.936,-18.937c-10.457,0 -18.936,8.479 -18.936,18.937c-0,10.457 8.479,18.936 18.936,18.936c10.458,-0 18.936,-8.479 18.936,-18.936Z" style="fill:#fff;fill-rule:nonzero;"/></g></svg>