<svg width="92" height="91" viewBox="0 0 92 91" fill="none" xmlns="http://www.w3.org/2000/svg">
<path d="M46.0111 45.5111C39.7777 45.5111 34.4416 43.2916 30.0027 38.8527C25.5639 34.4139 23.3444 29.0777 23.3444 22.8444C23.3444 16.6111 25.5639 11.275 30.0027 6.83607C34.4416 2.39718 39.7777 0.177734 46.0111 0.177734C52.2444 0.177734 57.5805 2.39718 62.0194 6.83607C66.4583 11.275 68.6777 16.6111 68.6777 22.8444C68.6777 29.0777 66.4583 34.4139 62.0194 38.8527C57.5805 43.2916 52.2444 45.5111 46.0111 45.5111ZM0.677734 90.8444V74.9778C0.677734 71.7666 1.50412 68.8152 3.1569 66.1236C4.80968 63.4319 7.00551 61.3778 9.7444 59.9611C15.6 57.0333 21.55 54.8375 27.5944 53.3736C33.6389 51.9097 39.7777 51.1777 46.0111 51.1777C52.2444 51.1777 58.3833 51.9097 64.4277 53.3736C70.4722 54.8375 76.4222 57.0333 82.2778 59.9611C85.0166 61.3778 87.2125 63.4319 88.8653 66.1236C90.518 68.8152 91.3444 71.7666 91.3444 74.9778V90.8444H0.677734Z" fill="#ECEEFE"/>
</svg>
