<?xml version="1.0" encoding="UTF-8" standalone="no"?><!DOCTYPE svg PUBLIC "-//W3C//DTD SVG 1.1//EN" "http://www.w3.org/Graphics/SVG/1.1/DTD/svg11.dtd"><svg width="100%" height="100%" viewBox="0 0 250 250" version="1.1" xmlns="http://www.w3.org/2000/svg" xmlns:xlink="http://www.w3.org/1999/xlink" xml:space="preserve" xmlns:serif="http://www.serif.com/" style="fill-rule:evenodd;clip-rule:evenodd;stroke-linejoin:round;stroke-miterlimit:2;"><g><rect x="0" y="0" width="250" height="250" style="fill:none;"/><path d="M102.655,176.025l-0.015,-17.43l93.656,-0.237l0.051,17.395l-93.692,0.272Z" style="fill:url(#_Linear1);fill-rule:nonzero;"/><path d="M48.834,89l36,36l12.35,-12.3l-36,-36.05l-12.35,12.35Zm12.35,84.35l-12.3,-12.3l36,-36l12.3,12.25l-36,36.05Z" style="fill:url(#_Linear2);fill-rule:nonzero;"/><path d="M113.667,125.2l-24.8,-0.2l-36,-36l12.3,-12.3l48.5,48.5Zm-0,0l-24.8,-0.2l-36,36l12.3,12.3l48.5,-48.1Z" style="fill:url(#_Linear3);fill-rule:nonzero;"/></g><defs><linearGradient id="_Linear1" x1="0" y1="0" x2="1" y2="0" gradientUnits="userSpaceOnUse" gradientTransform="matrix(55.7054,55.383,-55.383,55.7054,121.639,139.492)"><stop offset="0" style="stop-color:#1381ff;stop-opacity:1"/><stop offset="0.08" style="stop-color:#1376ff;stop-opacity:1"/><stop offset="0.29" style="stop-color:#125cff;stop-opacity:1"/><stop offset="0.51" style="stop-color:#124aff;stop-opacity:1"/><stop offset="0.74" style="stop-color:#123fff;stop-opacity:1"/><stop offset="1" style="stop-color:#123cff;stop-opacity:1"/></linearGradient><linearGradient id="_Linear2" x1="0" y1="0" x2="1" y2="0" gradientUnits="userSpaceOnUse" gradientTransform="matrix(-48.3421,0,0,48.3421,97.1863,125)"><stop offset="0" style="stop-color:#13e4e8;stop-opacity:1"/><stop offset="1" style="stop-color:#1381ff;stop-opacity:1"/></linearGradient><linearGradient id="_Linear3" x1="0" y1="0" x2="1" y2="0" gradientUnits="userSpaceOnUse" gradientTransform="matrix(48.3421,0,0,48.3421,52.8267,125)"><stop offset="0" style="stop-color:#1381ff;stop-opacity:1"/><stop offset="0.13" style="stop-color:#4271ff;stop-opacity:1"/><stop offset="0.26" style="stop-color:#6963ff;stop-opacity:1"/><stop offset="0.4" style="stop-color:#8a58ff;stop-opacity:1"/><stop offset="0.53" style="stop-color:#a44fff;stop-opacity:1"/><stop offset="0.68" style="stop-color:#b649ff;stop-opacity:1"/><stop offset="0.83" style="stop-color:#c045ff;stop-opacity:1"/><stop offset="1" style="stop-color:#c444ff;stop-opacity:1"/></linearGradient></defs></svg>